Coordinates
version=1
nRows=14
nColumns=36
inDegrees=yes

Units are S.I. units (second, meters, Newtons, ...)
If the header above contains a line with 'inDegrees', this indicates whether rotational values are in degrees (yes) or radians (no).

endheader
time	pelvis_tilt	pelvis_list	pelvis_rotation	pelvis_tx	pelvis_ty	pelvis_tz	hip_flexion_r	hip_adduction_r	hip_rotation_r	knee_angle_r	knee_angle_r_beta	ankle_angle_r	subtalar_angle_r	mtp_angle_r	hip_flexion_l	hip_adduction_l	hip_rotation_l	knee_angle_l	knee_angle_l_beta	ankle_angle_l	subtalar_angle_l	mtp_angle_l	lumbar_extension	lumbar_bending	lumbar_rotation	arm_flex_r	arm_add_r	arm_rot_r	elbow_flex_r	pro_sup_r	arm_flex_l	arm_add_l	arm_rot_l	elbow_flex_l	pro_sup_l
      0.00000000	     -2.07458836	     -5.97040899	      2.15975628	      0.34294943	      0.99145957	     -0.12242024	     32.30282036	      4.38649955	     -0.43010996	     16.08263410	      0.28069492	     -6.07914188	    -12.17680848	     -6.62429523	      3.25165226	      0.39189578	      0.81089223	      6.30114010	      0.10997564	      8.94474169	      0.87940434	     -6.62429523	     -9.58722859	     -0.75059649	     -6.48782356	     41.21809447	     -1.12037529	     41.43467276	    126.73764756	     75.99637214	     43.34645184	    -28.40699000	     55.03236806	    124.60226502	     73.18356505
      0.01666670	     -2.70357178	     -6.43956137	      3.51329382	      0.33069753	      0.98680358	     -0.12671029	     33.11280133	      4.06171645	     -2.32274263	     12.00107925	      0.20945835	     -3.83543442	     -4.81323468	     -6.88819293	      6.03741220	      0.05792905	     -0.36398740	     10.00796221	      0.17467189	      8.86029852	     -0.52967874	     -6.88819293	    -11.48966669	     -1.42785333	     -5.02727215	     43.17716329	     -3.31459760	     46.69496601	    135.73477827	     88.55505286	     48.44045532	    -25.79122213	     55.04659280	    125.35838303	     86.89158614
      0.03333330	     -3.40597454	     -5.91399301	      2.97511068	      0.33177793	      0.98422834	     -0.12469588	     32.93003216	      3.71546613	     -3.89601966	      7.93118512	      0.13842529	     -1.06628510	     -0.77739425	     -6.90406612	      7.94624671	      0.59365161	     -2.10875701	     11.98359664	      0.20915322	      9.50349614	     -1.89168769	     -6.90406612	    -10.49425451	     -2.29044309	     -5.11111957	     43.83011146	     -1.41550352	     45.66586267	    135.07953838	     88.71315150	     48.14373989	    -25.70507132	     53.78907646	    125.72712879	     87.18018891
      0.05000000	     -3.59622516	     -6.40473936	      2.34627109	      0.33275832	      0.98316207	     -0.12375057	     33.50189734	      4.20651673	     -5.51245746	      8.12581979	      0.14182231	      2.76015889	      2.65389216	     -6.91939293	      9.56567316	      0.02487191	     -2.98605949	     14.44853830	      0.25217457	     11.66225864	     -1.43158851	     -6.91939293	    -10.22759419	     -1.84584478	     -5.37862832	     45.01985846	     -0.78900227	     45.88260707	    133.94387079	     88.82012781	     47.89926026	    -25.39052799	     53.00898364	    126.22389192	     87.36648675
      0.06666670	     -3.83472173	     -6.60578082	      1.98431978	      0.32582517	      0.98281597	     -0.12231070	     35.02247682	      4.34260348	     -6.61152579	      9.71469270	      0.16955337	      3.53270857	      4.85828026	     -6.93471506	     11.65846930	     -0.12551354	     -3.62312171	     17.05395585	      0.29764768	     13.64431677	     -1.89437667	     -6.93471506	    -10.47854512	     -1.75623013	     -5.63099704	     46.25000921	     -0.63358295	     46.42164946	    133.58750626	     88.74367208	     48.31601549	    -25.26175296	     52.10752548	    126.09272857	     87.30064655
      0.08333330	     -3.76982489	     -6.60106787	      1.75680189	      0.32650781	      0.98056476	     -0.12187218	     36.34898102	      4.29861222	     -6.80399148	     11.39206749	      0.19882909	      3.07137648	      5.36131891	     -6.95200572	     12.95814044	     -0.06420241	     -3.70912787	     18.91859801	      0.33019183	     15.63511481	     -1.96147760	     -6.95200572	    -11.04610349	     -1.79707507	     -5.59164371	     47.48249920	     -0.28504536	     46.64443572	    133.13528243	     88.50760924	     48.83863941	    -25.12067758	     50.77663515	    125.04150670	     87.00640567
      0.10000000	     -3.49516271	     -6.40871462	      1.56185007	      0.32548818	      0.98114789	     -0.12238793	     37.34400948	      4.08879215	     -6.51360169	     12.77382891	      0.22294537	      1.86553354	      5.34313116	     -6.95788137	     13.76258892	      0.18876371	     -3.74989666	     20.35279059	      0.35522321	     16.88522380	     -2.09869478	     -6.95788137	    -12.08631372	     -2.16436670	     -5.33761331	     48.56263972	      0.27127639	     47.42344151	    133.58840813	     88.44265325	     49.69347706	    -24.95894764	     51.14540736	    125.99953206	     86.90295995
      0.11666670	     -3.46575406	     -5.94882993	      1.51337676	      0.31883674	      0.97171339	     -0.12780144	     39.05012792	      3.51110598	     -5.73780573	     14.45105979	      0.25221857	      0.27415443	      4.64898864	     -7.13492324	     15.58825683	      0.71522371	     -3.88976117	     22.76133453	      0.39726023	     18.11937546	     -2.18887777	     -7.13492324	    -13.36944368	     -2.75898088	     -5.57462106	     51.10282810	      0.14561342	     49.37626297	    134.70123788	     83.61855542	     52.83186653	    -25.39744500	     54.08200683	    126.47868552	     81.46706312
      0.13333330	     -3.27199566	     -5.43313019	      1.53749426	      0.31695976	      0.96670278	     -0.12719210	     40.45853567	      2.90805643	     -5.04812350	     15.77107318	      0.27525715	     -0.83124700	      4.00910084	     -7.20023397	     17.18381056	      1.23280142	     -4.18629179	     25.28015341	      0.44122191	     19.47301605	     -2.76424926	     -7.20023397	    -14.73547286	     -3.46857504	     -5.55371349	     52.77467860	     -0.42299002	     50.39974665	    135.04192100	     81.35987669	     55.74866836	    -25.88395529	     55.88847703	    124.34312518	     79.55055067
      0.15000000	     -3.16859600	     -4.87831566	      1.63615817	      0.31669494	      0.96474150	     -0.12605377	     41.56388648	      2.29921517	     -4.43050557	     16.55509772	      0.28894096	     -1.61867545	      3.54867830	     -7.21012131	     18.49722338	      1.77206473	     -4.32856800	     27.35877058	      0.47750063	     20.60984225	     -3.24890511	     -7.21012131	    -16.10065698	     -4.05455222	     -6.34067792	     55.06748104	      0.03226663	     52.72497892	    135.76068791	     81.26104799	     58.52998165	    -27.49778192	     58.27408150	    125.32995540	     79.26712838
      0.16666670	     -3.11742532	     -4.16971996	      1.94168718	      0.30783442	      0.96214946	     -0.12404976	     42.79603977	      1.49552538	     -3.97466996	     17.28957001	      0.30175992	     -2.41957180	      3.36103905	     -7.24936781	     19.96669063	      2.47343982	     -4.47994132	     29.30858182	      0.51153125	     21.49507085	     -3.52737826	     -7.24936781	    -17.76308258	     -4.76335815	     -6.90220691	     57.90564209	      0.00812962	     53.31475427	    135.34141788	     78.91784943	     62.43624238	    -28.71243274	     61.32543251	    125.66715727	     76.86810950
      0.18333330	     -3.06410051	     -3.35177370	      2.29926179	      0.30109317	      0.96220927	     -0.12990374	     43.84571758	      0.47660039	     -3.75756567	     17.56907506	      0.30663821	     -3.39615596	      3.75148929	     -7.25117786	     21.37182556	      3.36722673	     -4.59719334	     31.06120007	      0.54212021	     22.13364553	     -3.83825291	     -7.25117786	    -19.27969631	     -5.46330833	     -7.60443381	     59.86918479	     -0.15151252	     52.98509649	    135.10647628	     78.80279544	     64.40441494	    -29.37098006	     60.81482475	    124.63799839	     76.64937403
      0.20000000	     -3.01760715	     -2.60234542	      2.76606049	      0.30563866	      0.96288748	     -0.12357538	     44.47120279	     -0.42006333	     -3.72518951	     17.29255886	      0.30181209	     -3.79591265	      3.95037002	     -7.25592378	     22.23832350	      4.15067894	     -4.66135609	     32.19413513	      0.56189366	     22.47709665	     -4.07610903	     -7.25592378	    -20.35646365	     -6.07282225	     -7.84640835	     61.29886249	     -0.17597394	     53.11434006	    134.81943016	     78.57649981	     65.77413873	    -29.67560579	     60.77511380	    123.94818563	     76.32297261
      0.21666670	     -2.77106522	     -1.50173401	      3.58855417	      0.29213358	      0.96277603	     -0.12776199	     44.92421791	     -1.88971373	     -3.99945511	     17.12081595	      0.29881461	     -4.34986457	      4.55830355	     -7.35042481	     23.00527249	      5.36631487	     -4.75960380	     33.31647542	      0.58148219	     22.31227218	     -4.33125503	     -7.35042481	    -22.80813918	     -7.03500338	     -7.98690233	     62.86216887	     -1.72048732	     55.68207306	    135.07124860	     71.15066292	     70.03512171	    -29.42488534	     65.68570375	    124.18288037	     63.61999201
